Coordinates
version=1
nRows=21
nColumns=33
inDegrees=yes

Units are S.I. units (second, meters, Newtons, ...)
Angles are in degrees.

endheader
time	ground_thorax_rot_x	ground_thorax_rot_y	ground_thorax_rot_z	ground_thorax_tx	ground_thorax_ty	ground_thorax_tz	clav_prot_r	clav_elev_r	scapula_abduction_r	scapula_elevation_r	scapula_upward_rot_r	scapula_winging_r	shoulder_elv_r	plane_of_elev_r	axial_rot_r	elbow_flexion_r	pro_sup_r	wrist_flex_r	wrist_dev_r	clav_prot_l	clav_elev_l	scapula_abduction_l	scapula_elevation_l	scapula_upward_rot_l	scapula_winging_l	shoulder_elv_l	plane_of_elev_l	axial_rot_l	elbow_flexion_l	pro_sup_l	wrist_flex_l	wrist_dev_l
      5.62000000	     -4.06683024	      0.32859999	      7.67619682	     -0.08997912	      1.03159677	     -0.00087658	     17.46828693	    -13.47637098	     44.10219748	    -14.01129270	     24.58659236	    -12.38453661	     -2.50091514	    -53.48389487	    123.12980173	    -34.70542996	   -120.81922744	     -3.98430640	      7.23025558	     26.62011124	    -12.67916895	    -39.84143186	     -4.78406462	    -25.58089301	     13.46110553	     56.60450497	      0.11759275	      4.47362896	     11.57059104	     14.52079592	     13.81402304	     -4.27042257
      5.63000000	     -3.90564628	      0.65747353	      7.71643984	     -0.08981943	      1.03179795	     -0.00117131	     17.25232637	    -13.15331483	     43.93511189	    -13.79678171	     24.79868925	    -12.46982654	     -2.91555377	    -53.79066267	    122.67015722	    -33.98256336	   -122.91421857	     -0.29667004	      5.01784588	     26.53730118	    -12.72245127	    -39.69829580	     -4.78605486	    -25.65408793	     13.35662622	     56.48789700	      0.29240728	      4.15526331	     11.37386745	     13.81665660	     13.16104646	     -5.20500004
      5.64000000	     -4.05151322	      0.69123827	      7.66021615	     -0.08987084	      1.03198647	     -0.00152178	     17.42843286	    -13.47126499	     44.10605210	    -14.03202977	     24.68061314	    -12.37124931	     -3.27140273	    -54.06415032	    122.30348459	    -34.03720168	   -125.34831055	     -0.81422309	      2.94337678	     26.27660540	    -12.42032990	    -39.32757903	     -4.94555275	    -25.42148585	     13.21986649	     56.37754738	     -0.16437541	      4.19001851	     12.10652305	     12.99926813	     13.24469828	     -5.35490150
      5.65000000	     -4.02026775	      0.82870363	      7.80485448	     -0.09002375	      1.03166149	     -0.00177999	     17.31103436	    -13.29770412	     43.75975304	    -13.82299856	     24.42023084	    -12.35668500	     -3.43130130	    -54.19725449	    122.29820414	    -34.28432679	   -125.74197772	     -0.46799546	      2.92863507	     26.10060788	    -12.22886525	    -39.06473457	     -5.18053413	    -25.56308648	     13.10152829	     56.26980456	     -0.33334137	      4.42802659	     12.89130424	     12.85854854	     13.24843626	     -5.54761351
      5.66000000	     -4.07723960	      1.04165513	      7.94108524	     -0.09009664	      1.03194233	     -0.00210802	     17.07075534	    -13.58612969	     42.98637082	    -13.93656042	     23.85104224	    -11.87733248	     -3.40817337	    -54.38377390	    121.99380007	    -34.27336391	   -128.77166607	      1.02033162	      2.93378837	     25.68291979	    -12.26393103	    -38.38348506	     -5.07353036	    -25.34614785	     12.68073206	     56.35093422	     -1.03303685	      4.16131474	     13.59524873	     12.59794748	     13.85951889	     -5.98270242
      5.67000000	     -4.10031566	      1.17959009	      7.85042040	     -0.09038269	      1.03131793	     -0.00233869	     16.97515648	    -13.49286047	     42.65331776	    -13.78746746	     23.56751724	    -11.82217374	     -3.45152306	    -54.55452682	    121.94110434	    -34.75492545	   -129.43876135	      1.18756669	      2.76866856	     25.48182337	    -11.93496145	    -38.10203491	     -5.36962944	    -25.36537396	     12.59624710	     56.35690207	     -1.14454470	      4.45838971	     14.58933450	     12.46755315	     13.93541567	     -6.23242954
      5.68000000	     -4.27900857	      1.44195399	      7.95947246	     -0.09059222	      1.03160326	     -0.00275254	     16.67473760	    -14.21842516	     41.53230874	    -14.18867585	     22.65392897	    -10.93827183	     -3.34218466	    -54.91547328	    121.70255507	    -35.05962679	   -134.86999785	      2.21136812	      3.08890915	     24.95006313	    -11.93839861	    -37.24189746	     -5.22667100	    -25.00264071	     12.08732741	     56.60953813	     -1.96347465	      3.84763350	     15.36691449	     12.62110946	     15.17108257	     -6.80521584
      5.69000000	     -4.29259432	      1.53516890	      7.95657888	     -0.09106784	      1.03072422	     -0.00299129	     16.52807949	    -14.06442295	     41.10255585	    -13.97768650	     22.33735142	    -10.88125153	     -3.44080033	    -55.15015310	    121.80910614	    -35.62213343	   -135.55967693	      2.34899371	      2.93123753	     24.74371098	    -11.57690561	    -36.94913195	     -5.57542845	    -25.07285463	     12.00103510	     56.55206819	     -2.04681764	      4.32011446	     16.42731826	     12.52807814	     15.19882689	     -7.04875750
      5.70000000	     -4.50489788	      1.81457793	      7.86429746	     -0.09137661	      1.03083308	     -0.00346866	     16.11184632	    -14.97069036	     39.64954941	    -14.47791246	     21.19988225	     -9.74329476	     -2.89597679	    -55.57524604	    122.34495686	    -36.31687424	   -142.56614038	      2.96529195	      3.45720980	     24.27505409	    -11.52020016	    -36.19745237	     -5.50800437	    -24.77199337	     11.57895734	     56.98343579	     -2.61195714	      3.84207543	     17.30624380	     13.26243883	     16.51143413	     -7.62558014
      5.71000000	     -4.47703923	      1.88601000	      8.09161624	     -0.09213124	      1.02989432	     -0.00354085	     15.97902366	    -14.76534055	     39.11106245	    -14.16121503	     20.68028770	     -9.70113319	     -3.09302576	    -55.76380847	    122.35659569	    -36.99442631	   -143.07958079	      3.10506995	      3.29006521	     24.06325944	    -11.25649118	    -35.87588051	     -5.79881348	    -24.89222497	     11.44460376	     56.83338982	     -2.76056011	      4.39867694	     18.19626196	     13.19392647	     16.51771644	     -7.84431087
      5.72000000	     -4.76476474	      2.06462749	      8.10321664	     -0.09259406	      1.02998964	     -0.00410348	     15.44858614	    -15.84357151	     37.32036093	    -14.74447060	     19.29219072	     -8.31125050	     -2.31276130	    -56.23381725	    123.59106183	    -37.94063167	   -149.83403556	      3.27721273	      3.37688049	     23.69688994	    -11.03570134	    -35.30434621	     -5.94885930	    -24.77668419	     11.16294226	     57.15060072	     -3.09127238	      4.65871440	     19.06174993	     14.47168833	     17.83542646	     -8.61592531
      5.73000000	     -4.67231903	      2.21761167	      8.17848426	     -0.09348716	      1.02908326	     -0.00393771	     15.34544092	    -15.53046735	     36.79208792	    -14.30138601	     18.70551569	     -8.35939405	     -2.49121108	    -56.32309304	    123.45520630	    -39.07761222	   -150.16195670	      3.55586115	      3.27378159	     23.54213731	    -10.90667063	    -35.05883377	     -6.09146018	    -24.82290949	     11.04670284	     57.13661372	     -3.17908707	      5.00792164	     19.80172379	     14.46445805	     17.85062718	     -8.82017116
      5.74000000	     -4.61908240	      2.32340836	      8.33474633	     -0.09432369	      1.02832680	     -0.00379441	     15.18874920	    -15.31818705	     36.16060615	    -13.94152586	     18.09131481	     -8.28653655	     -2.78807147	    -56.52766123	    123.38537032	    -40.31596763	   -150.75211807	      3.89813449	      3.36834694	     23.34326795	    -10.79971482	    -34.73680068	     -6.24837973	    -24.94140454	     10.87353710	     57.16439295	     -3.36346499	      5.38664637	     20.60007836	     14.54678116	     18.02287594	     -9.09239541
      5.75000000	     -4.89481391	      2.48677224	      8.37725094	     -0.09478141	      1.02878114	     -0.00410072	     14.61770195	    -16.42492994	     34.36596568	    -14.55629186	     16.77047266	     -6.86373771	     -2.38288957	    -57.13272492	    123.92933969	    -41.73713002	   -155.36063599	      4.17302347	      4.15092218	     22.92718740	    -10.74168017	    -34.04392878	     -6.41785944	    -25.15086872	     10.46401326	     57.84567236	     -3.58418922	      5.87491772	     21.51243748	     16.49348983	     20.00241221	    -10.21861267
      5.76000000	     -4.76922314	      2.59221108	      8.36837458	     -0.09570733	      1.02808691	     -0.00386222	     14.49517482	    -16.06163708	     33.88146870	    -14.08892229	     16.28278138	     -6.94947431	     -2.67543902	    -57.34062362	    123.92273778	    -43.25754313	   -155.50892613	      4.52717675	      4.00624339	     22.77833259	    -10.56836597	    -33.81357402	     -6.60570546	    -25.21976931	     10.36481621	     57.78904937	     -3.63400395	      6.28091246	     22.36297784	     16.45729271	     19.99175286	    -10.43262991
      5.77000000	     -4.66018522	      2.64633047	      8.56194939	     -0.09672299	      1.02756385	     -0.00361445	     14.34661630	    -15.76060936	     33.30362484	    -13.65305724	     15.71710518	     -6.95064351	     -3.12399307	    -57.67273184	    123.93650323	    -44.79951857	   -155.72360065	      4.89194140	      3.91954635	     22.58311147	    -10.40074155	    -33.49747238	     -6.87958971	    -25.47547813	     10.19851055	     57.71457800	     -3.86340385	      6.66846498	     23.49007888	     16.41591344	     20.02998848	    -10.69602491
      5.78000000	     -4.56419298	      2.69037008	      8.69531853	     -0.09776225	      1.02722372	     -0.00326719	     14.19483050	    -15.51426775	     32.71758410	    -13.26264893	     15.14842126	     -6.90908162	     -3.58293878	    -58.02511776	    123.90764672	    -46.44498393	   -155.99213100	      5.26795731	      3.84501599	     22.37619929	    -10.24222711	    -33.16117799	     -7.17892441	    -25.79966301	     10.01503562	     57.74579867	     -4.17259382	      6.96181600	     24.85678904	     16.35099629	     20.07656596	    -10.96866505
      5.79000000	     -4.62745191	      2.80519920	      8.87760421	     -0.09880702	      1.02813351	     -0.00300946	     13.98497002	    -16.25723784	     31.66569430	    -13.58536894	     14.04181456	     -6.05746534	     -4.01370297	    -58.93277757	    123.56420260	    -48.45317310	   -157.63095100	      5.49418452	      3.65874482	     22.03558571	    -10.69687400	    -32.53052319	     -7.17168088	    -26.58471648	      9.48885426	     58.80985852	     -5.14788481	      6.45275209	     26.80118081	     16.55378660	     20.52603006	    -10.92536074
      5.80000000	     -4.51051701	      2.80160190	      8.98859978	     -0.09969610	      1.02793585	     -0.00266633	     13.74905898	    -15.87184710	     31.02340174	    -13.10035684	     13.57854252	     -6.06684575	     -4.52675677	    -59.23380258	    123.60358272	    -50.04443245	   -157.85379061	      5.84585219	      3.59194698	     21.75541744	    -10.34010497	    -32.09728000	     -7.64296595	    -26.90019755	      9.29088902	     58.61712501	     -5.38367220	      6.95912596	     28.34332760	     16.30500043	     20.46966384	    -11.15162522
      5.81000000	     -4.43900211	      2.78232220	      9.14541985	     -0.10068818	      1.02784228	     -0.00223627	     13.55837012	    -15.54167857	     30.39693252	    -12.63288812	     13.02818926	     -6.05041380	     -5.15270774	    -59.61563120	    123.63072607	    -51.80379660	   -158.11418386	      6.22092042	      3.50683037	     21.49647437	    -10.05650843	    -31.69098396	     -8.08247810	    -27.28268500	      9.08206719	     58.57184563	     -5.80321882	      7.28026456	     29.95593954	     16.05093822	     20.39362281	    -11.34176372
      5.82000000	     -4.49498830	      2.79622085	      9.36790346	     -0.10168803	      1.02886474	     -0.00190859	     13.39893592	    -16.18617144	     29.52303585	    -12.89428178	     12.04619559	     -5.33486828	     -6.01803203	    -60.66049845	    123.02059637	    -53.87339109	   -159.70096269	      6.40006253	      3.07711731	     21.07178030	    -10.41364438	    -30.95035535	     -8.10528642	    -27.94627417	      8.53256700	     59.47096189	     -6.98395790	      6.64652992	     31.96185055	     15.49592568	     20.29942009	    -10.74754547
